<svg id="svg" version="1.1" width="400" height="400" xmlns="http://www.w3.org/2000/svg" xmlns:xlink="http://www.w3.org/1999/xlink" style="display: block;"><g id="svgg"><path id="path0" d="M244.313 79.095 C 245.476 79.176,247.276 79.176,248.313 79.093 C 249.351 79.011,248.400 78.945,246.200 78.946 C 244.000 78.947,243.151 79.014,244.313 79.095 M217.200 91.933 C 217.200 92.190,216.795 92.421,216.300 92.446 C 215.559 92.485,215.531 92.527,216.142 92.684 C 216.940 92.889,217.925 92.191,217.473 91.740 C 217.323 91.590,217.200 91.677,217.200 91.933 M255.862 120.331 C 255.498 120.734,255.200 121.211,255.200 121.393 C 255.200 121.574,255.560 121.307,256.000 120.800 C 256.440 120.293,256.800 119.815,256.800 119.739 C 256.800 119.439,256.495 119.632,255.862 120.331 M96.105 125.887 C 96.714 125.979,97.614 125.977,98.105 125.882 C 98.597 125.787,98.100 125.711,97.000 125.714 C 95.900 125.717,95.497 125.795,96.105 125.887 M107.900 125.882 C 108.395 125.978,109.205 125.978,109.700 125.882 C 110.195 125.787,109.790 125.709,108.800 125.709 C 107.810 125.709,107.405 125.787,107.900 125.882 M94.493 182.400 C 94.493 183.170,94.575 183.485,94.676 183.100 C 94.776 182.715,94.776 182.085,94.676 181.700 C 94.575 181.315,94.493 181.630,94.493 182.400 M121.693 182.800 C 121.693 183.570,121.775 183.885,121.876 183.500 C 121.976 183.115,121.976 182.485,121.876 182.100 C 121.775 181.715,121.693 182.030,121.693 182.800 M82.202 187.198 C 81.803 187.639,81.607 188.000,81.767 188.000 C 82.188 188.000,83.328 186.795,83.112 186.579 C 83.011 186.478,82.602 186.756,82.202 187.198 " stroke="none" fill="#055a5a" fill-rule="evenodd"></path><path id="path1" d="M247.700 9.100 C 270.965 9.157,309.035 9.157,332.300 9.100 C 355.565 9.043,336.530 8.996,290.000 8.996 C 243.470 8.996,224.435 9.043,247.700 9.100 M293.105 259.083 C 293.602 259.179,294.322 259.175,294.705 259.075 C 295.087 258.975,294.680 258.896,293.800 258.901 C 292.920 258.905,292.607 258.987,293.105 259.083 M298.100 259.076 C 298.485 259.176,299.115 259.176,299.500 259.076 C 299.885 258.975,299.570 258.893,298.800 258.893 C 298.030 258.893,297.715 258.975,298.100 259.076 " stroke="none" fill="#b62424" fill-rule="evenodd"></path><path id="path2" d="M15.078 13.413 C 14.460 13.956,14.114 14.400,14.308 14.400 C 14.502 14.400,15.083 13.950,15.600 13.400 C 16.795 12.128,16.531 12.134,15.078 13.413 M199.676 84.366 C 199.768 84.677,200.284 85.206,200.822 85.541 C 201.580 86.014,201.665 86.021,201.200 85.575 C 200.870 85.259,200.354 84.730,200.054 84.400 C 199.615 83.917,199.541 83.910,199.676 84.366 M260.944 100.800 C 260.944 102.890,261.012 103.745,261.094 102.700 C 261.176 101.655,261.176 99.945,261.094 98.900 C 261.012 97.855,260.944 98.710,260.944 100.800 M226.075 113.400 C 226.553 113.950,227.006 114.400,227.081 114.400 C 227.157 114.400,226.924 113.950,226.563 113.400 C 226.203 112.850,225.750 112.400,225.557 112.400 C 225.363 112.400,225.597 112.850,226.075 113.400 M198.700 118.832 C 198.315 119.056,198.003 119.456,198.006 119.720 C 198.010 120.052,198.103 120.066,198.306 119.766 C 198.468 119.527,198.960 119.127,199.400 118.878 C 199.840 118.628,200.020 118.424,199.800 118.424 C 199.580 118.424,199.085 118.608,198.700 118.832 M256.175 119.700 L 255.000 121.000 256.300 119.825 C 257.015 119.179,257.600 118.594,257.600 118.525 C 257.600 118.216,257.270 118.488,256.175 119.700 M234.943 120.200 C 235.273 120.530,235.871 120.799,236.271 120.798 C 236.792 120.796,236.673 120.624,235.854 120.198 C 234.407 119.443,234.186 119.443,234.943 120.200 M89.067 126.267 C 88.920 126.413,88.803 126.728,88.806 126.967 C 88.810 127.260,88.907 127.253,89.106 126.946 C 89.268 126.697,89.760 126.403,90.200 126.293 C 90.974 126.099,90.973 126.091,90.167 126.046 C 89.708 126.021,89.213 126.120,89.067 126.267 M79.582 130.434 C 79.336 130.893,79.240 131.373,79.368 131.501 C 79.495 131.629,79.600 131.536,79.600 131.295 C 79.600 131.054,79.883 130.574,80.229 130.229 C 80.574 129.883,80.671 129.600,80.443 129.600 C 80.215 129.600,79.827 129.975,79.582 130.434 M135.344 151.200 C 135.344 153.290,135.412 154.145,135.494 153.100 C 135.576 152.055,135.576 150.345,135.494 149.300 C 135.412 148.255,135.344 149.110,135.344 151.200 M125.200 175.712 L 124.200 176.980 125.287 176.190 C 125.886 175.756,126.381 175.175,126.387 174.900 C 126.405 174.220,126.345 174.261,125.200 175.712 M122.100 180.223 C 121.825 180.522,121.600 180.994,121.600 181.272 C 121.600 181.550,121.888 181.366,122.241 180.863 C 122.962 179.833,122.865 179.393,122.100 180.223 M79.582 188.834 C 79.336 189.293,79.240 189.773,79.368 189.901 C 79.495 190.029,79.600 189.936,79.600 189.695 C 79.600 189.454,79.883 188.974,80.229 188.629 C 80.574 188.283,80.671 188.000,80.443 188.000 C 80.215 188.000,79.827 188.375,79.582 188.834 " stroke="none" fill="#0c8582" fill-rule="evenodd"></path><path id="path3" d="M325.600 203.171 C 325.600 203.375,325.285 203.624,324.900 203.724 C 324.373 203.862,324.423 203.919,325.100 203.954 C 325.654 203.982,326.000 203.769,326.000 203.400 C 326.000 203.070,325.910 202.800,325.800 202.800 C 325.690 202.800,325.600 202.967,325.600 203.171 M277.293 212.400 C 277.293 213.170,277.375 213.485,277.476 213.100 C 277.576 212.715,277.576 212.085,277.476 211.700 C 277.375 211.315,277.293 211.630,277.293 212.400 M274.200 218.800 C 273.802 219.240,273.566 219.600,273.677 219.600 C 273.787 219.600,274.293 219.240,274.800 218.800 C 275.307 218.360,275.543 218.000,275.323 218.000 C 275.104 218.000,274.598 218.360,274.200 218.800 M264.432 236.100 C 264.453 236.701,264.539 236.801,264.692 236.400 C 264.817 236.070,265.118 235.668,265.360 235.506 C 265.631 235.325,265.532 235.210,265.100 235.206 C 264.630 235.202,264.410 235.495,264.432 236.100 M327.854 237.470 C 328.103 237.651,328.407 238.160,328.528 238.600 C 328.701 239.231,328.732 239.195,328.674 238.431 C 328.633 237.899,328.330 237.390,328.000 237.301 C 327.604 237.194,327.554 237.251,327.854 237.470 M263.737 247.769 C 263.772 248.429,264.062 249.009,264.400 249.100 C 264.801 249.207,264.848 249.151,264.540 248.930 C 264.288 248.749,263.989 248.150,263.877 247.600 C 263.701 246.739,263.682 246.762,263.737 247.769 M328.400 249.367 C 328.400 249.678,328.175 250.024,327.900 250.135 C 327.601 250.256,327.682 250.350,328.100 250.368 C 328.544 250.388,328.800 250.107,328.800 249.600 C 328.800 249.160,328.710 248.800,328.600 248.800 C 328.490 248.800,328.400 249.055,328.400 249.367 M325.600 258.272 C 325.600 258.495,325.195 258.873,324.700 259.112 C 324.205 259.351,323.991 259.558,324.224 259.573 C 324.896 259.616,326.230 258.496,325.899 258.166 C 325.735 258.001,325.600 258.049,325.600 258.272 M288.000 269.280 C 288.000 269.456,288.945 269.579,290.100 269.554 C 292.282 269.505,292.072 269.348,289.500 269.103 C 288.675 269.025,288.000 269.104,288.000 269.280 M301.705 269.487 C 302.314 269.579,303.214 269.577,303.705 269.482 C 304.197 269.387,303.700 269.311,302.600 269.314 C 301.500 269.317,301.097 269.395,301.705 269.487 M196.971 280.903 L 195.800 282.197 197.000 281.199 C 197.660 280.649,198.275 280.155,198.367 280.100 C 198.458 280.045,198.445 279.912,198.338 279.804 C 198.230 279.696,197.615 280.191,196.971 280.903 M188.000 285.171 C 188.000 285.375,187.685 285.624,187.300 285.724 C 186.773 285.862,186.823 285.919,187.500 285.954 C 188.054 285.982,188.400 285.769,188.400 285.400 C 188.400 285.070,188.310 284.800,188.200 284.800 C 188.090 284.800,188.000 284.967,188.000 285.171 M138.148 294.400 C 138.148 296.710,138.214 297.655,138.295 296.500 C 138.376 295.345,138.376 293.455,138.295 292.300 C 138.214 291.145,138.148 292.090,138.148 294.400 M175.855 305.000 C 175.729 305.330,175.799 305.600,176.013 305.600 C 176.226 305.600,176.400 305.433,176.400 305.229 C 176.400 305.025,176.715 304.776,177.100 304.676 C 177.652 304.531,177.619 304.483,176.943 304.446 C 176.471 304.421,175.982 304.670,175.855 305.000 M167.311 311.300 C 166.630 312.181,166.317 313.030,166.970 312.224 C 167.317 311.797,167.825 311.304,168.100 311.130 C 168.427 310.922,168.444 310.810,168.149 310.806 C 167.901 310.803,167.524 311.025,167.311 311.300 M150.600 315.872 C 151.040 315.993,151.549 316.297,151.730 316.546 C 151.949 316.846,152.006 316.796,151.899 316.400 C 151.810 316.070,151.301 315.767,150.769 315.726 C 150.005 315.668,149.969 315.699,150.600 315.872 " stroke="none" fill="#9a8552" fill-rule="evenodd"></path><path id="path4" d="M100.300 136.296 C 101.675 136.374,103.925 136.374,105.300 136.296 C 106.675 136.218,105.550 136.154,102.800 136.154 C 100.050 136.154,98.925 136.218,100.300 136.296 M124.032 144.700 C 124.010 145.305,124.230 145.598,124.700 145.594 C 125.132 145.590,125.231 145.475,124.960 145.294 C 124.718 145.132,124.417 144.730,124.292 144.400 C 124.139 143.999,124.053 144.099,124.032 144.700 M81.200 148.567 C 81.200 149.605,80.994 150.417,80.700 150.536 C 80.320 150.691,80.313 150.820,80.672 151.076 C 80.932 151.261,81.210 152.220,81.289 153.207 C 81.369 154.193,81.460 153.155,81.491 150.900 C 81.522 148.645,81.470 146.800,81.374 146.800 C 81.278 146.800,81.200 147.595,81.200 148.567 M124.901 151.000 C 124.905 151.880,124.987 152.193,125.083 151.695 C 125.179 151.198,125.175 150.478,125.075 150.095 C 124.975 149.713,124.896 150.120,124.901 151.000 M120.811 163.787 C 120.543 164.109,120.417 164.604,120.531 164.887 C 120.658 165.204,120.749 165.128,120.768 164.687 C 120.786 164.295,121.205 163.811,121.700 163.612 C 122.309 163.368,122.390 163.243,121.949 163.225 C 121.591 163.211,121.079 163.464,120.811 163.787 M118.073 167.230 C 117.343 167.894,116.803 168.564,116.873 168.719 C 116.943 168.873,117.656 168.325,118.459 167.500 C 120.202 165.707,119.945 165.527,118.073 167.230 M88.000 168.780 C 88.000 169.011,88.137 169.200,88.304 169.200 C 88.471 169.200,89.101 169.657,89.704 170.216 C 90.307 170.775,90.800 171.066,90.800 170.864 C 90.800 170.661,90.170 170.014,89.400 169.427 C 88.630 168.840,88.000 168.548,88.000 168.780 M113.100 174.432 C 112.715 174.656,112.403 175.056,112.406 175.320 C 112.410 175.652,112.503 175.666,112.706 175.366 C 112.868 175.127,113.360 174.727,113.800 174.478 C 114.240 174.228,114.420 174.024,114.200 174.024 C 113.980 174.024,113.485 174.208,113.100 174.432 M111.232 179.700 C 111.253 180.301,111.339 180.401,111.492 180.000 C 111.617 179.670,111.918 179.268,112.160 179.106 C 112.431 178.925,112.332 178.810,111.900 178.806 C 111.430 178.802,111.210 179.095,111.232 179.700 M112.094 188.959 C 112.475 189.245,112.655 189.625,112.494 189.804 C 112.332 189.982,112.425 189.999,112.700 189.841 C 113.463 189.401,113.299 188.918,112.300 188.667 C 111.486 188.461,111.466 188.489,112.094 188.959 M116.000 195.000 C 116.746 195.770,117.447 196.400,117.557 196.400 C 117.667 196.400,117.146 195.770,116.400 195.000 C 115.654 194.230,114.953 193.600,114.843 193.600 C 114.733 193.600,115.254 194.230,116.000 195.000 M87.500 196.214 C 86.501 197.550,86.631 197.923,87.646 196.633 C 88.111 196.042,88.426 195.495,88.346 195.418 C 88.266 195.341,87.885 195.700,87.500 196.214 M118.412 195.726 C 118.388 196.378,119.240 197.600,119.714 197.594 C 120.049 197.590,120.065 197.496,119.766 197.294 C 119.527 197.132,119.127 196.640,118.878 196.200 C 118.628 195.760,118.419 195.547,118.412 195.726 M120.412 197.326 C 120.388 197.978,121.240 199.200,121.714 199.194 C 122.049 199.190,122.065 199.096,121.766 198.894 C 121.527 198.732,121.127 198.240,120.878 197.800 C 120.628 197.360,120.419 197.147,120.412 197.326 M148.267 261.867 C 148.120 262.013,148.003 262.328,148.006 262.567 C 148.010 262.843,148.122 262.828,148.314 262.526 C 148.480 262.265,149.512 261.982,150.608 261.898 L 152.600 261.744 150.567 261.672 C 149.448 261.632,148.413 261.720,148.267 261.867 M154.905 261.887 C 155.514 261.979,156.414 261.977,156.905 261.882 C 157.397 261.787,156.900 261.711,155.800 261.714 C 154.700 261.717,154.297 261.795,154.905 261.887 M174.035 268.954 C 174.535 269.529,175.024 270.000,175.121 270.000 C 175.480 270.000,174.114 268.238,173.629 268.076 C 173.352 267.984,173.535 268.379,174.035 268.954 M132.703 270.500 C 132.185 270.995,132.040 271.200,132.380 270.956 C 132.721 270.712,133.360 270.312,133.800 270.068 C 134.240 269.824,134.385 269.619,134.122 269.612 C 133.860 269.605,133.221 270.005,132.703 270.500 M177.483 271.588 C 177.854 272.021,178.238 272.296,178.336 272.198 C 178.574 271.959,177.595 270.800,177.155 270.800 C 176.964 270.800,177.111 271.155,177.483 271.588 M188.594 273.442 C 188.021 274.016,187.652 274.586,187.776 274.709 C 187.899 274.832,188.045 274.858,188.100 274.767 C 188.155 274.675,188.636 274.105,189.170 273.500 C 190.401 272.103,189.976 272.061,188.594 273.442 M127.693 287.600 C 127.693 288.370,127.775 288.685,127.876 288.300 C 127.976 287.915,127.976 287.285,127.876 286.900 C 127.775 286.515,127.693 286.830,127.693 287.600 M127.693 300.800 C 127.693 301.570,127.775 301.885,127.876 301.500 C 127.976 301.115,127.976 300.485,127.876 300.100 C 127.775 299.715,127.693 300.030,127.693 300.800 M176.700 317.414 C 175.701 318.750,175.831 319.123,176.846 317.833 C 177.311 317.242,177.626 316.695,177.546 316.618 C 177.466 316.541,177.085 316.900,176.700 317.414 M133.222 318.833 C 133.234 319.145,133.819 319.838,134.522 320.374 L 135.800 321.349 134.600 319.976 C 133.940 319.222,133.355 318.528,133.300 318.435 C 133.245 318.343,133.210 318.522,133.222 318.833 M137.627 322.126 C 137.565 322.873,138.501 324.047,139.005 323.853 C 139.304 323.739,139.636 323.819,139.744 324.032 C 139.852 324.246,139.890 324.190,139.829 323.910 C 139.767 323.630,139.449 323.446,139.121 323.503 C 138.793 323.560,138.329 323.200,138.090 322.703 C 137.850 322.206,137.642 321.947,137.627 322.126 M169.284 322.615 C 168.634 323.353,168.820 323.350,170.254 322.602 C 171.168 322.126,171.238 322.008,170.600 322.018 C 170.160 322.025,169.568 322.294,169.284 322.615 M162.400 325.171 C 162.400 325.375,162.085 325.624,161.700 325.724 C 161.173 325.862,161.223 325.919,161.900 325.954 C 162.454 325.982,162.800 325.769,162.800 325.400 C 162.800 325.070,162.710 324.800,162.600 324.800 C 162.490 324.800,162.400 324.967,162.400 325.171 M159.600 325.973 C 159.600 326.179,159.105 326.422,158.500 326.513 C 157.476 326.669,157.490 326.684,158.700 326.740 C 159.616 326.782,160.000 326.623,160.000 326.200 C 160.000 325.870,159.910 325.600,159.800 325.600 C 159.690 325.600,159.600 325.768,159.600 325.973 M146.800 326.455 C 146.800 326.645,147.250 326.800,147.800 326.800 C 148.350 326.800,148.800 326.731,148.800 326.647 C 148.800 326.562,148.350 326.407,147.800 326.302 C 147.250 326.197,146.800 326.266,146.800 326.455 M12.643 377.833 C 12.294 378.742,12.324 378.803,13.100 378.768 C 13.485 378.751,13.585 378.649,13.322 378.543 C 13.060 378.436,12.944 378.090,13.065 377.774 C 13.186 377.458,13.196 377.200,13.086 377.200 C 12.976 377.200,12.776 377.485,12.643 377.833 " stroke="none" fill="#699890" fill-rule="evenodd"></path><path id="path5" d="" stroke="none" fill="#ff0000" fill-rule="evenodd"></path><path id="path6" d="M204.567 9.167 C 204.182 9.551,204.414 69.200,204.800 69.200 C 205.020 69.200,205.200 69.650,205.200 70.200 C 205.200 70.750,205.401 71.200,205.647 71.200 C 205.905 71.200,206.014 71.613,205.906 72.180 C 205.790 72.785,205.929 73.241,206.269 73.371 C 206.637 73.512,206.736 73.917,206.566 74.591 C 206.410 75.215,206.482 75.600,206.757 75.600 C 207.000 75.600,207.200 75.931,207.200 76.336 C 207.200 76.740,207.660 77.281,208.223 77.537 C 208.793 77.797,209.126 78.195,208.977 78.437 C 208.648 78.970,211.480 81.722,212.016 81.390 C 212.227 81.260,212.400 81.433,212.400 81.776 C 212.400 82.249,212.836 82.400,214.200 82.400 C 215.587 82.400,216.000 82.252,216.000 81.757 C 216.000 81.343,216.219 81.198,216.615 81.350 C 216.959 81.482,217.327 81.336,217.448 81.019 C 217.568 80.706,217.921 80.548,218.233 80.668 C 218.545 80.788,218.800 80.665,218.800 80.396 C 218.800 80.108,219.120 79.990,219.578 80.110 C 220.349 80.312,220.631 80.051,223.153 76.806 C 223.803 75.969,224.333 75.652,224.821 75.807 C 225.310 75.962,225.617 75.776,225.795 75.217 C 225.937 74.768,226.358 74.400,226.731 74.400 C 227.103 74.400,227.642 74.025,227.928 73.567 C 228.214 73.108,228.693 72.827,228.991 72.941 C 229.290 73.056,229.632 72.894,229.752 72.581 C 229.873 72.264,230.241 72.118,230.585 72.250 C 230.923 72.379,231.200 72.286,231.200 72.043 C 231.200 71.799,231.470 71.600,231.800 71.600 C 232.130 71.600,232.400 71.420,232.400 71.200 C 232.400 70.980,232.760 70.800,233.200 70.800 C 233.640 70.800,234.000 70.600,234.000 70.355 C 234.000 70.064,234.482 70.001,235.400 70.174 C 236.489 70.378,236.800 70.304,236.800 69.843 C 236.800 69.389,237.127 69.303,238.200 69.477 C 239.234 69.645,239.600 69.560,239.600 69.152 C 239.600 68.704,240.883 68.600,246.400 68.600 C 251.700 68.600,253.200 68.714,253.200 69.118 C 253.200 69.494,253.585 69.564,254.600 69.374 C 255.685 69.170,256.000 69.243,256.000 69.700 C 256.000 70.113,256.300 70.232,257.000 70.098 C 257.584 69.986,258.000 70.093,258.000 70.353 C 258.000 70.599,258.360 70.800,258.800 70.800 C 259.240 70.800,259.600 70.999,259.600 71.243 C 259.600 71.486,259.875 71.580,260.212 71.451 C 260.609 71.298,260.978 71.554,261.262 72.176 C 261.536 72.778,261.920 73.052,262.288 72.911 C 263.054 72.617,266.062 75.772,265.762 76.555 C 265.628 76.904,265.866 77.230,266.371 77.391 C 266.833 77.537,267.200 77.996,267.200 78.427 C 267.200 78.852,267.380 79.200,267.600 79.200 C 267.820 79.200,268.000 79.560,268.000 80.000 C 268.000 80.440,268.199 80.800,268.443 80.800 C 268.686 80.800,268.782 81.070,268.655 81.400 C 268.511 81.777,268.660 82.000,269.056 82.000 C 269.522 82.000,269.624 82.251,269.446 82.958 C 269.288 83.589,269.398 83.990,269.768 84.132 C 270.177 84.289,270.271 84.792,270.113 85.974 C 269.969 87.046,270.049 87.600,270.347 87.600 C 270.629 87.600,270.800 88.429,270.800 89.800 C 270.800 91.010,270.953 92.000,271.139 92.000 C 271.326 92.000,271.474 95.870,271.470 100.600 C 271.465 105.330,271.312 109.200,271.130 109.200 C 270.949 109.200,270.800 110.280,270.800 111.600 C 270.800 113.091,270.632 114.000,270.356 114.000 C 270.085 114.000,269.976 114.543,270.076 115.400 C 270.195 116.418,270.085 116.800,269.673 116.800 C 269.280 116.800,269.167 117.116,269.304 117.832 C 269.429 118.485,269.300 118.940,268.953 119.073 C 268.598 119.210,268.490 119.619,268.646 120.242 C 268.792 120.821,268.711 121.200,268.443 121.200 C 268.200 121.200,268.000 121.548,268.000 121.973 C 268.000 122.398,267.635 122.862,267.189 123.003 C 266.744 123.145,266.424 123.472,266.479 123.730 C 266.535 123.989,265.459 125.335,264.090 126.723 C 262.720 128.110,261.600 129.409,261.600 129.610 C 261.600 129.811,261.330 129.871,261.000 129.745 C 260.668 129.617,260.400 129.733,260.400 130.004 C 260.400 130.296,260.078 130.409,259.600 130.284 C 259.076 130.147,258.800 130.272,258.800 130.645 C 258.800 131.045,258.517 131.144,257.854 130.978 C 257.218 130.818,256.833 130.936,256.679 131.339 C 256.535 131.714,256.142 131.858,255.629 131.724 C 255.140 131.596,254.725 131.730,254.599 132.057 C 254.451 132.443,253.844 132.562,252.546 132.458 C 251.526 132.377,250.586 132.499,250.442 132.731 C 250.046 133.373,241.990 133.432,241.597 132.796 C 241.382 132.448,240.690 132.353,239.411 132.498 C 237.993 132.657,237.485 132.566,237.315 132.122 C 237.181 131.775,236.776 131.618,236.320 131.737 C 235.860 131.857,235.459 131.698,235.321 131.339 C 235.167 130.936,234.782 130.818,234.146 130.978 C 233.615 131.111,233.200 131.036,233.200 130.808 C 233.200 130.583,232.930 130.400,232.600 130.400 C 232.270 130.400,232.000 130.220,232.000 130.000 C 232.000 129.780,231.640 129.600,231.200 129.600 C 230.760 129.600,230.400 129.441,230.400 129.247 C 230.400 128.884,228.877 128.266,228.249 128.374 C 228.057 128.407,227.641 128.066,227.327 127.617 C 227.012 127.168,226.441 126.800,226.058 126.800 C 225.674 126.800,224.920 126.091,224.380 125.225 C 223.658 124.063,223.190 123.694,222.600 123.818 C 222.034 123.938,221.449 123.535,220.600 122.441 C 219.940 121.591,219.272 120.970,219.116 121.061 C 218.860 121.211,217.294 120.494,216.800 120.000 C 216.417 119.617,211.600 119.662,211.600 120.048 C 211.600 120.261,211.375 120.399,211.100 120.354 C 209.998 120.177,209.202 120.870,209.437 121.804 C 209.612 122.502,209.466 122.789,208.834 122.989 C 208.368 123.137,208.000 123.595,208.000 124.027 C 208.000 124.452,207.801 124.800,207.557 124.800 C 207.314 124.800,207.221 125.077,207.350 125.415 C 207.482 125.759,207.336 126.127,207.019 126.248 C 206.706 126.368,206.548 126.721,206.668 127.033 C 206.804 127.387,206.627 127.600,206.199 127.600 C 205.672 127.600,205.570 127.825,205.758 128.575 C 205.893 129.112,205.822 129.663,205.601 129.799 C 205.381 129.936,205.200 130.667,205.200 131.424 C 205.200 132.181,205.020 132.800,204.800 132.800 C 204.092 132.800,204.266 191.523,204.976 192.233 C 205.470 192.727,210.028 192.795,236.776 192.705 C 263.117 192.616,268.000 192.686,268.000 193.152 C 268.000 193.562,268.368 193.645,269.421 193.474 C 270.392 193.316,270.905 193.408,271.041 193.762 C 271.159 194.071,271.637 194.206,272.220 194.094 C 272.927 193.959,273.200 194.084,273.200 194.541 C 273.200 194.940,273.422 195.090,273.800 194.945 C 274.130 194.818,274.400 194.870,274.400 195.060 C 274.400 195.580,276.605 196.450,277.273 196.193 C 277.643 196.051,278.031 196.350,278.330 197.007 C 278.591 197.578,278.992 197.928,279.223 197.786 C 279.454 197.643,279.983 197.920,280.400 198.400 C 280.817 198.880,281.319 199.174,281.515 199.052 C 282.090 198.697,284.459 201.382,284.189 202.083 C 284.024 202.516,284.271 202.781,285.013 202.967 C 285.737 203.149,286.000 203.423,285.843 203.832 C 285.716 204.163,285.877 204.532,286.204 204.657 C 286.529 204.782,286.683 205.065,286.546 205.287 C 286.410 205.508,286.544 205.842,286.846 206.029 C 287.171 206.229,287.343 206.864,287.267 207.584 C 287.197 208.253,287.296 208.800,287.488 208.800 C 287.680 208.800,287.828 210.420,287.818 212.400 C 287.808 214.380,287.665 216.000,287.500 216.000 C 287.335 216.000,287.200 216.450,287.200 217.000 C 287.200 217.550,287.020 218.000,286.800 218.000 C 286.580 218.000,286.400 218.360,286.400 218.800 C 286.400 219.240,286.220 219.600,286.000 219.600 C 285.780 219.600,285.600 219.870,285.600 220.200 C 285.600 220.530,285.408 220.800,285.173 220.800 C 284.928 220.800,284.854 221.141,285.000 221.600 C 285.146 222.059,285.072 222.400,284.827 222.400 C 284.592 222.400,284.396 222.715,284.391 223.100 C 284.387 223.485,283.684 224.295,282.829 224.899 C 281.726 225.679,281.331 226.214,281.469 226.742 C 281.611 227.284,281.119 227.885,279.652 228.962 C 278.348 229.919,277.718 230.643,277.863 231.019 C 277.985 231.339,277.867 231.600,277.600 231.600 C 277.327 231.600,277.218 231.870,277.350 232.215 C 277.482 232.559,277.336 232.927,277.019 233.048 C 276.706 233.168,276.548 233.520,276.667 233.830 C 276.786 234.140,276.606 234.500,276.267 234.630 C 275.928 234.760,275.748 235.121,275.868 235.433 C 276.002 235.781,275.831 236.000,275.425 236.000 C 274.891 236.000,274.812 236.259,275.016 237.344 C 275.192 238.283,275.107 238.750,274.734 238.893 C 273.967 239.187,274.012 249.113,274.782 249.589 C 275.087 249.778,275.221 250.277,275.095 250.759 C 274.942 251.342,275.062 251.600,275.484 251.600 C 275.896 251.600,276.026 251.859,275.884 252.400 C 275.743 252.940,275.872 253.200,276.280 253.200 C 276.667 253.200,276.798 253.428,276.644 253.830 C 276.345 254.609,277.342 255.674,278.099 255.383 C 278.432 255.255,278.835 255.558,279.098 256.135 C 279.442 256.890,279.763 257.058,280.569 256.904 C 281.226 256.778,281.600 256.886,281.600 257.200 C 281.600 257.514,281.974 257.622,282.632 257.496 C 283.313 257.366,283.740 257.500,283.890 257.891 C 284.061 258.337,284.501 258.422,285.669 258.235 C 286.755 258.062,287.280 258.142,287.418 258.503 C 287.717 259.282,305.200 259.275,305.200 258.496 C 305.200 258.077,305.616 258.013,307.000 258.221 C 308.476 258.442,308.800 258.379,308.800 257.871 C 308.800 257.385,309.104 257.300,310.200 257.477 C 311.109 257.625,311.600 257.546,311.600 257.252 C 311.600 257.004,311.948 256.800,312.373 256.800 C 312.801 256.800,313.262 256.434,313.406 255.980 C 313.566 255.477,313.946 255.207,314.390 255.280 C 315.309 255.432,316.800 254.107,316.800 253.138 C 316.800 252.732,317.000 252.400,317.243 252.400 C 317.517 252.400,317.590 252.016,317.436 251.400 C 317.266 250.723,317.350 250.400,317.698 250.400 C 318.410 250.400,318.433 238.499,317.722 238.226 C 317.411 238.106,317.324 237.543,317.474 236.621 C 317.611 235.775,317.540 235.200,317.299 235.200 C 316.930 235.200,316.352 233.994,316.243 233.000 C 316.220 232.780,315.840 232.415,315.400 232.188 C 314.960 231.962,314.600 231.512,314.600 231.188 C 314.600 230.865,314.079 230.130,313.443 229.555 C 312.757 228.935,312.405 228.316,312.579 228.034 C 312.870 227.563,312.530 227.194,310.003 225.239 C 309.320 224.711,308.845 224.059,308.949 223.790 C 309.052 223.521,308.694 223.064,308.154 222.775 C 307.614 222.486,307.263 222.014,307.373 221.725 C 307.484 221.436,307.401 221.200,307.187 221.200 C 306.974 221.200,306.800 220.840,306.800 220.400 C 306.800 219.960,306.620 219.600,306.400 219.600 C 306.180 219.600,306.000 219.330,306.000 219.000 C 306.000 218.670,305.800 218.400,305.555 218.400 C 305.264 218.400,305.202 217.917,305.375 216.995 C 305.562 215.995,305.483 215.530,305.102 215.384 C 304.297 215.075,304.296 209.600,305.102 209.600 C 305.556 209.600,305.630 209.283,305.426 208.200 C 305.262 207.325,305.321 206.800,305.582 206.800 C 305.812 206.800,306.000 206.530,306.000 206.200 C 306.000 205.870,306.180 205.600,306.400 205.600 C 306.620 205.600,306.800 205.240,306.800 204.800 C 306.800 204.360,306.980 204.000,307.200 204.000 C 307.420 204.000,307.601 203.685,307.603 203.300 C 307.604 202.915,308.131 202.301,308.774 201.935 C 309.690 201.414,309.892 201.074,309.707 200.367 C 309.513 199.624,309.597 199.513,310.184 199.738 C 310.888 200.009,312.400 198.751,312.400 197.896 C 312.400 197.686,312.677 197.621,313.015 197.750 C 313.359 197.882,313.727 197.736,313.848 197.419 C 313.968 197.106,314.321 196.948,314.633 197.068 C 314.945 197.188,315.200 197.086,315.200 196.843 C 315.200 196.599,315.560 196.400,316.000 196.400 C 316.440 196.400,316.800 196.220,316.800 196.000 C 316.800 195.780,317.070 195.600,317.400 195.600 C 317.730 195.600,318.000 195.400,318.000 195.157 C 318.000 194.882,318.385 194.810,319.009 194.966 C 319.714 195.144,320.088 195.037,320.250 194.613 C 320.409 194.199,320.788 194.082,321.442 194.246 C 322.137 194.421,322.400 194.320,322.400 193.881 C 322.400 193.462,322.660 193.343,323.241 193.495 C 323.703 193.616,324.212 193.505,324.371 193.248 C 324.587 192.898,332.460 192.784,355.725 192.795 C 386.328 192.809,386.803 192.797,387.595 192.005 C 388.727 190.873,388.887 20.000,387.757 20.000 C 387.278 20.000,387.175 19.755,387.354 19.042 C 387.516 18.396,387.402 18.009,387.004 17.857 C 386.669 17.728,386.515 17.364,386.650 17.015 C 386.779 16.677,386.686 16.400,386.443 16.400 C 386.199 16.400,386.000 16.139,386.000 15.819 C 386.000 15.063,382.137 11.200,381.381 11.200 C 381.061 11.200,380.800 11.001,380.800 10.757 C 380.800 10.514,380.523 10.421,380.185 10.550 C 379.841 10.682,379.473 10.536,379.352 10.219 C 379.232 9.906,378.879 9.748,378.567 9.868 C 378.249 9.990,378.000 9.847,378.000 9.543 C 378.000 9.027,205.081 8.652,204.567 9.167 " stroke="none" fill="#d7654d" fill-rule="evenodd"></path><path id="path7" d="M21.600 9.446 C 21.600 9.896,21.357 10.030,20.800 9.884 C 20.305 9.755,20.000 9.872,20.000 10.191 C 20.000 10.670,18.857 11.253,17.704 11.362 C 17.431 11.387,16.662 12.071,15.994 12.880 C 15.327 13.690,14.418 14.467,13.974 14.608 C 13.398 14.791,13.237 15.085,13.410 15.632 C 13.556 16.092,13.465 16.400,13.184 16.400 C 12.926 16.400,12.821 16.677,12.950 17.015 C 13.087 17.371,12.926 17.730,12.570 17.867 C 12.231 17.997,12.049 18.350,12.164 18.652 C 12.284 18.963,12.121 19.200,11.787 19.200 C 11.273 19.200,11.200 29.936,11.200 106.000 L 11.200 192.800 41.157 192.800 C 67.265 192.800,71.144 192.724,71.342 192.207 C 71.480 191.846,71.830 191.713,72.234 191.869 C 72.643 192.025,73.042 191.868,73.271 191.459 C 73.530 190.997,73.939 190.870,74.621 191.041 C 75.261 191.202,75.600 191.117,75.600 190.797 C 75.600 190.486,75.977 190.379,76.632 190.504 C 77.269 190.626,77.740 190.500,77.865 190.176 C 77.975 189.887,78.289 189.736,78.562 189.841 C 78.834 189.945,79.269 189.566,79.528 188.998 C 79.787 188.430,80.250 188.018,80.556 188.082 C 81.255 188.230,83.717 185.713,83.390 185.184 C 83.258 184.970,83.431 184.686,83.775 184.554 C 84.626 184.228,84.658 181.200,83.810 181.200 C 83.372 181.200,83.280 180.901,83.452 180.040 C 83.642 179.089,83.526 178.830,82.805 178.602 C 82.193 178.407,81.987 178.094,82.125 177.567 C 82.270 177.010,81.802 176.429,80.348 175.362 C 78.842 174.257,78.431 173.733,78.614 173.156 C 78.746 172.740,78.689 172.400,78.488 172.400 C 77.760 172.400,76.310 170.810,76.526 170.249 C 76.671 169.871,76.398 169.586,75.731 169.419 C 74.969 169.227,74.767 168.969,74.921 168.382 C 75.057 167.860,74.923 167.600,74.520 167.600 C 74.162 167.600,74.003 167.368,74.132 167.033 C 74.252 166.721,74.094 166.368,73.781 166.248 C 73.464 166.127,73.318 165.759,73.450 165.415 C 73.582 165.070,73.473 164.800,73.199 164.800 C 72.886 164.800,72.799 164.459,72.954 163.842 C 73.118 163.188,73.001 162.809,72.587 162.650 C 72.160 162.486,72.056 162.115,72.237 161.393 C 72.426 160.644,72.348 160.400,71.947 160.484 C 71.544 160.570,71.434 160.206,71.531 159.100 C 71.623 158.054,71.502 157.600,71.131 157.600 C 70.712 157.600,70.600 156.255,70.600 151.200 C 70.600 146.063,70.708 144.800,71.145 144.800 C 71.565 144.800,71.629 144.385,71.420 142.997 C 71.215 141.625,71.285 141.142,71.716 140.977 C 72.071 140.841,72.212 140.395,72.094 139.780 C 71.986 139.213,72.095 138.800,72.353 138.800 C 72.599 138.800,72.800 138.530,72.800 138.200 C 72.800 137.870,72.974 137.600,73.187 137.600 C 73.401 137.600,73.473 137.334,73.348 137.009 C 73.204 136.634,73.489 136.251,74.129 135.960 C 74.735 135.684,75.051 135.278,74.923 134.944 C 74.630 134.180,77.621 131.129,78.458 131.338 C 78.867 131.441,79.286 131.129,79.567 130.512 C 79.853 129.885,80.235 129.605,80.609 129.748 C 80.934 129.873,81.200 129.801,81.200 129.587 C 81.200 129.374,81.560 129.200,82.000 129.200 C 82.440 129.200,82.800 129.001,82.800 128.757 C 82.800 128.514,83.070 128.418,83.400 128.545 C 83.778 128.690,84.000 128.540,84.000 128.141 C 84.000 127.684,84.273 127.559,84.980 127.694 C 85.599 127.812,86.041 127.670,86.180 127.309 C 86.334 126.907,86.742 126.812,87.549 126.989 C 88.389 127.173,88.763 127.073,88.939 126.616 C 89.134 126.106,89.591 126.039,91.404 126.252 C 93.196 126.463,93.723 126.388,94.114 125.868 C 94.544 125.297,95.066 125.272,98.649 125.654 C 101.478 125.956,103.950 125.963,106.849 125.676 C 110.448 125.321,111.064 125.349,111.483 125.886 C 111.847 126.354,112.465 126.457,114.016 126.308 C 115.571 126.159,116.121 126.251,116.290 126.690 C 116.451 127.111,116.877 127.199,117.856 127.016 C 118.941 126.812,119.200 126.891,119.200 127.425 C 119.200 127.931,119.435 128.028,120.200 127.836 C 120.938 127.651,121.200 127.744,121.200 128.192 C 121.200 128.907,121.392 128.939,122.405 128.397 C 122.944 128.109,123.248 128.137,123.479 128.497 C 123.655 128.774,124.070 129.000,124.400 129.000 C 124.730 129.000,125.059 129.413,125.130 129.917 C 125.228 130.609,125.444 130.776,126.008 130.598 C 126.540 130.429,126.961 130.682,127.471 131.480 C 128.441 132.999,130.264 134.703,131.257 135.018 C 131.816 135.195,132.010 135.517,131.874 136.039 C 131.743 136.539,131.882 136.800,132.280 136.800 C 132.638 136.800,132.797 137.032,132.668 137.367 C 132.548 137.679,132.714 138.035,133.035 138.158 C 133.437 138.312,133.541 138.697,133.366 139.391 C 133.200 140.056,133.279 140.400,133.600 140.400 C 133.919 140.400,134.000 140.744,133.836 141.400 C 133.647 142.151,133.742 142.400,134.217 142.400 C 134.739 142.400,134.802 142.712,134.579 144.200 C 134.354 145.701,134.416 146.000,134.955 146.000 C 135.513 146.000,135.600 146.650,135.600 150.800 C 135.600 154.952,135.513 155.600,134.954 155.600 C 134.404 155.600,134.349 155.928,134.583 157.800 C 134.815 159.660,134.759 160.000,134.221 160.000 C 133.742 160.000,133.647 160.247,133.836 161.000 C 134.000 161.656,133.919 162.000,133.600 162.000 C 133.281 162.000,133.200 162.344,133.364 163.000 C 133.555 163.760,133.459 164.000,132.965 164.000 C 132.544 164.000,132.398 164.217,132.550 164.615 C 132.682 164.959,132.536 165.327,132.219 165.448 C 131.906 165.568,131.748 165.921,131.868 166.233 C 131.997 166.568,131.838 166.800,131.480 166.800 C 131.072 166.800,130.943 167.060,131.084 167.600 C 131.234 168.174,131.096 168.400,130.598 168.400 C 130.030 168.400,129.992 168.508,130.392 168.990 C 130.795 169.476,130.706 169.660,129.889 170.032 C 129.261 170.318,128.961 170.728,129.070 171.148 C 129.186 171.590,128.711 172.143,127.647 172.806 C 126.359 173.607,126.092 173.975,126.268 174.700 C 126.388 175.195,126.332 175.603,126.143 175.606 C 125.468 175.619,123.136 177.973,123.391 178.385 C 123.534 178.617,123.370 178.913,123.028 179.045 C 122.685 179.176,122.509 179.453,122.637 179.659 C 122.764 179.866,122.696 180.252,122.485 180.518 C 121.826 181.346,121.645 185.132,122.254 185.365 C 122.547 185.478,122.684 185.837,122.558 186.164 C 122.255 186.956,123.202 187.924,124.060 187.700 C 124.455 187.597,124.955 187.859,125.243 188.321 C 125.518 188.760,125.979 189.029,126.268 188.919 C 126.557 188.808,126.900 188.994,127.030 189.333 C 127.160 189.672,127.521 189.852,127.833 189.732 C 128.168 189.603,128.400 189.762,128.400 190.120 C 128.400 190.528,128.660 190.657,129.200 190.516 C 129.734 190.376,130.000 190.504,130.000 190.898 C 130.000 191.313,130.298 191.432,131.000 191.298 C 131.628 191.178,132.000 191.290,132.000 191.598 C 132.000 191.943,132.418 192.011,133.400 191.826 C 134.509 191.618,134.800 191.692,134.800 192.182 C 134.800 192.734,137.970 192.800,164.400 192.800 C 190.444 192.800,194.000 192.728,194.000 192.200 C 194.000 191.870,194.270 191.600,194.600 191.600 C 195.327 191.600,195.525 132.108,194.804 130.212 C 194.490 129.383,194.538 129.122,195.043 128.928 C 195.503 128.752,195.613 128.366,195.445 127.527 C 195.283 126.715,195.390 126.302,195.804 126.143 C 196.202 125.991,196.316 125.604,196.154 124.958 C 195.976 124.251,196.078 124.000,196.544 124.000 C 196.939 124.000,197.089 123.777,196.946 123.403 C 196.816 123.064,196.991 122.702,197.351 122.563 C 197.840 122.376,197.892 122.145,197.575 121.554 C 197.264 120.972,197.308 120.734,197.757 120.561 C 198.083 120.436,198.253 120.083,198.136 119.776 C 198.007 119.441,198.323 119.036,198.929 118.760 C 199.517 118.492,199.850 118.075,199.729 117.760 C 199.607 117.442,199.949 117.024,200.558 116.747 C 201.309 116.404,201.482 116.140,201.188 115.786 C 200.600 115.077,203.493 112.213,204.203 112.802 C 204.582 113.117,204.774 112.960,204.972 112.169 C 205.172 111.372,205.426 111.166,206.018 111.321 C 206.540 111.457,206.800 111.323,206.800 110.920 C 206.800 110.562,207.032 110.403,207.367 110.532 C 207.679 110.652,208.032 110.494,208.152 110.182 C 208.305 109.783,208.731 109.686,209.585 109.857 C 210.376 110.015,210.800 109.939,210.800 109.639 C 210.800 109.313,211.535 109.251,213.300 109.426 C 214.769 109.572,216.260 109.496,216.914 109.242 C 217.827 108.887,218.072 108.923,218.269 109.437 C 218.417 109.821,218.809 109.986,219.280 109.863 C 219.728 109.746,220.140 109.899,220.267 110.231 C 220.387 110.544,220.736 110.800,221.043 110.800 C 221.349 110.800,221.600 110.999,221.600 111.243 C 221.600 111.486,221.877 111.579,222.215 111.450 C 222.559 111.318,222.927 111.464,223.048 111.781 C 223.168 112.094,223.520 112.252,223.830 112.133 C 224.140 112.014,224.510 112.221,224.652 112.592 C 224.859 113.131,224.981 113.159,225.259 112.734 C 225.599 112.210,227.168 113.667,227.191 114.529 C 227.210 115.209,228.279 115.922,228.800 115.600 C 229.405 115.226,229.763 115.528,231.427 117.810 C 232.180 118.844,232.851 119.370,233.300 119.280 C 233.685 119.204,234.000 119.345,234.000 119.594 C 234.000 119.843,234.155 119.952,234.344 119.835 C 234.835 119.531,236.793 120.511,236.797 121.063 C 236.799 121.328,237.141 121.436,237.600 121.316 C 238.156 121.170,238.400 121.304,238.400 121.753 C 238.400 122.513,238.434 122.519,239.788 122.004 C 240.601 121.695,240.878 121.739,241.057 122.204 C 241.402 123.102,251.406 123.082,251.751 122.183 C 251.938 121.697,252.160 121.657,252.794 121.997 C 253.451 122.348,253.600 122.306,253.600 121.767 C 253.600 121.304,253.838 121.169,254.400 121.316 C 254.904 121.448,255.200 121.328,255.200 120.994 C 255.200 120.264,258.419 117.565,258.920 117.874 C 259.180 118.035,259.233 117.665,259.069 116.847 C 258.892 115.961,258.977 115.507,259.348 115.365 C 259.671 115.241,259.808 114.774,259.694 114.180 C 259.555 113.454,259.681 113.200,260.180 113.200 C 260.689 113.200,260.791 112.979,260.595 112.300 C 260.453 111.805,260.248 111.084,260.141 110.698 C 260.033 110.312,260.194 109.900,260.499 109.783 C 261.330 109.464,261.287 92.799,260.453 92.161 C 259.984 91.803,259.965 91.477,260.347 90.381 C 260.743 89.243,260.716 88.985,260.170 88.679 C 259.686 88.408,259.589 87.982,259.781 86.959 C 259.988 85.859,259.910 85.600,259.375 85.600 C 258.969 85.600,258.798 85.381,258.932 85.033 C 259.052 84.721,258.878 84.362,258.547 84.235 C 258.153 84.084,258.033 83.726,258.199 83.202 C 258.346 82.739,258.272 82.400,258.024 82.400 C 257.788 82.400,257.199 81.945,256.715 81.389 C 256.232 80.832,255.596 80.469,255.303 80.582 C 255.010 80.694,254.668 80.521,254.543 80.196 C 254.391 79.798,254.004 79.684,253.358 79.846 C 252.700 80.012,252.400 79.917,252.400 79.543 C 252.400 79.108,251.125 79.000,246.000 79.000 C 241.095 79.000,239.600 79.119,239.600 79.508 C 239.600 79.842,239.276 79.934,238.654 79.778 C 238.006 79.615,237.633 79.737,237.469 80.164 C 237.331 80.525,236.972 80.688,236.615 80.550 C 236.222 80.400,236.000 80.542,236.000 80.945 C 236.000 81.341,235.777 81.489,235.400 81.345 C 235.070 81.218,234.800 81.327,234.800 81.587 C 234.800 81.846,234.485 81.994,234.100 81.914 C 233.659 81.823,233.057 82.263,232.473 83.103 C 231.851 83.998,231.325 84.367,230.873 84.223 C 230.400 84.074,229.695 84.663,228.502 86.205 C 227.446 87.571,226.501 88.400,226.002 88.400 C 225.561 88.400,225.200 88.592,225.200 88.827 C 225.200 89.063,224.863 89.147,224.446 89.015 C 223.872 88.832,223.630 89.025,223.430 89.824 C 223.262 90.492,222.967 90.796,222.616 90.662 C 222.314 90.546,221.964 90.717,221.839 91.043 C 221.665 91.497,221.430 91.537,220.832 91.217 C 219.791 90.660,219.600 90.689,219.600 91.408 C 219.600 91.856,219.338 91.949,218.600 91.764 C 217.844 91.574,217.600 91.670,217.600 92.157 C 217.600 92.691,217.090 92.800,214.600 92.800 C 212.161 92.800,211.600 92.684,211.600 92.182 C 211.600 91.692,211.309 91.618,210.200 91.826 C 209.080 92.037,208.800 91.963,208.800 91.457 C 208.800 91.060,208.577 90.911,208.200 91.055 C 207.870 91.182,207.600 91.086,207.600 90.843 C 207.600 90.599,207.240 90.400,206.800 90.400 C 206.360 90.400,206.000 90.226,206.000 90.013 C 206.000 89.799,205.742 89.724,205.427 89.845 C 205.070 89.982,204.632 89.637,204.265 88.932 C 203.645 87.740,202.545 86.681,200.668 85.470 C 200.033 85.060,199.627 84.505,199.743 84.203 C 199.857 83.908,199.694 83.568,199.381 83.448 C 199.064 83.327,198.918 82.959,199.050 82.615 C 199.179 82.277,199.086 82.000,198.843 82.000 C 198.599 82.000,198.400 81.730,198.400 81.400 C 198.400 81.070,198.199 80.800,197.953 80.800 C 197.704 80.800,197.599 80.447,197.716 80.000 C 197.857 79.460,197.728 79.200,197.319 79.200 C 196.880 79.200,196.779 78.937,196.954 78.242 C 197.110 77.619,197.002 77.210,196.647 77.073 C 196.300 76.940,196.171 76.485,196.296 75.832 C 196.436 75.099,196.322 74.800,195.902 74.800 C 195.487 74.800,195.368 74.502,195.502 73.800 C 195.645 73.054,195.522 72.800,195.020 72.800 C 194.491 72.800,194.416 72.606,194.673 71.900 C 194.853 71.405,195.000 57.050,195.000 40.000 L 195.000 9.000 108.300 8.899 C 28.628 8.806,21.600 8.851,21.600 9.446 " stroke="none" fill="#10afac" fill-rule="evenodd"></path><path id="path8" d="M93.402 136.739 C 93.285 137.045,92.916 137.177,92.559 137.040 C 90.708 136.330,90.000 136.318,90.000 137.000 C 90.000 137.525,89.774 137.630,89.042 137.446 C 88.374 137.279,88.009 137.399,87.838 137.844 C 87.699 138.208,87.337 138.385,86.997 138.254 C 86.623 138.111,86.400 138.261,86.400 138.655 C 86.400 139.042,86.175 139.199,85.820 139.063 C 85.065 138.773,82.559 141.268,82.729 142.139 C 82.805 142.524,82.601 142.800,82.242 142.800 C 81.858 142.800,81.712 143.027,81.855 143.400 C 82.005 143.790,81.845 144.000,81.397 144.000 C 80.830 144.000,80.759 144.227,80.992 145.300 C 81.542 147.824,81.622 153.773,81.127 155.347 C 80.698 156.713,80.725 156.956,81.357 157.418 C 81.840 157.771,81.987 158.211,81.809 158.771 C 81.614 159.386,81.720 159.600,82.220 159.600 C 82.696 159.600,82.832 159.834,82.684 160.400 C 82.543 160.940,82.672 161.200,83.080 161.200 C 83.438 161.200,83.597 161.432,83.468 161.767 C 83.348 162.079,83.506 162.432,83.819 162.552 C 84.133 162.673,84.282 163.042,84.152 163.380 C 83.997 163.785,84.339 164.227,85.171 164.695 C 86.084 165.209,86.373 165.617,86.237 166.200 C 86.093 166.814,86.607 167.406,88.448 168.751 C 89.906 169.815,90.766 170.712,90.641 171.038 C 90.528 171.333,90.614 171.685,90.834 171.821 C 91.053 171.956,91.127 172.399,90.999 172.804 C 90.824 173.354,90.997 173.573,91.683 173.670 C 92.268 173.753,92.580 174.053,92.544 174.500 C 92.514 174.885,92.753 175.200,93.076 175.200 C 93.521 175.200,93.599 175.492,93.400 176.400 C 93.198 177.322,93.277 177.600,93.743 177.600 C 94.213 177.600,94.298 177.916,94.123 179.000 C 93.949 180.069,94.035 180.400,94.484 180.400 C 95.242 180.400,95.251 184.450,94.494 184.702 C 94.222 184.793,94.000 185.482,94.000 186.233 C 94.000 186.985,93.800 187.600,93.557 187.600 C 93.282 187.600,93.210 187.985,93.366 188.609 C 93.541 189.303,93.437 189.688,93.035 189.842 C 92.714 189.965,92.548 190.321,92.668 190.633 C 92.804 190.988,92.626 191.200,92.194 191.200 C 91.657 191.200,91.603 191.322,91.952 191.742 C 92.306 192.169,92.042 192.512,90.701 193.367 C 89.765 193.964,88.553 195.170,88.006 196.048 C 87.310 197.165,86.800 197.589,86.306 197.459 C 85.861 197.343,85.600 197.499,85.600 197.880 C 85.600 198.238,85.368 198.397,85.033 198.268 C 84.721 198.148,84.368 198.306,84.248 198.619 C 84.127 198.936,83.759 199.082,83.415 198.950 C 83.077 198.821,82.800 198.914,82.800 199.157 C 82.800 199.401,82.530 199.600,82.200 199.600 C 81.870 199.600,81.600 199.803,81.600 200.050 C 81.600 200.337,81.164 200.413,80.400 200.260 C 79.495 200.079,79.200 200.167,79.200 200.618 C 79.200 201.055,78.932 201.148,78.200 200.964 C 77.423 200.769,77.200 200.867,77.200 201.403 C 77.200 201.915,76.975 202.034,76.330 201.866 C 75.774 201.720,75.285 201.878,74.974 202.303 C 74.564 202.864,74.322 202.893,73.425 202.484 C 72.623 202.119,64.861 202.000,41.781 202.000 L 11.200 202.000 11.200 288.757 C 11.200 365.067,11.271 375.542,11.793 375.742 C 12.131 375.872,12.285 376.235,12.150 376.585 C 11.995 376.991,12.147 377.200,12.600 377.200 C 13.045 377.200,13.205 377.410,13.055 377.800 C 12.929 378.130,13.019 378.400,13.256 378.400 C 13.503 378.400,13.590 378.784,13.460 379.302 C 13.283 380.007,13.496 380.355,14.429 380.891 C 15.086 381.268,15.932 382.114,16.309 382.771 C 16.845 383.704,17.193 383.917,17.898 383.740 C 18.428 383.607,18.800 383.696,18.800 383.957 C 18.800 384.200,19.070 384.400,19.400 384.400 C 19.730 384.400,20.000 384.600,20.000 384.843 C 20.000 385.118,20.385 385.190,21.009 385.034 C 21.716 384.856,22.088 384.963,22.252 385.390 C 22.460 385.934,31.831 386.000,108.843 386.000 L 195.200 386.000 195.200 356.000 C 195.200 328.638,195.143 326.000,194.553 326.000 C 194.079 326.000,193.958 325.733,194.098 325.000 C 194.232 324.296,194.113 324.000,193.695 324.000 C 193.247 324.000,193.159 323.703,193.340 322.800 C 193.526 321.871,193.437 321.600,192.947 321.600 C 192.471 321.600,192.376 321.351,192.564 320.600 C 192.709 320.023,192.643 319.600,192.408 319.600 C 192.183 319.600,192.000 319.269,192.000 318.864 C 192.000 318.460,191.532 317.915,190.959 317.654 C 190.101 317.263,190.005 317.076,190.408 316.590 C 190.678 316.266,190.723 316.000,190.508 316.000 C 190.294 316.000,189.588 315.493,188.940 314.873 C 188.291 314.254,187.544 313.819,187.280 313.907 C 187.016 313.995,186.800 313.782,186.800 313.433 C 186.800 312.932,186.340 312.800,184.600 312.800 C 183.390 312.800,182.400 312.980,182.400 313.200 C 182.400 313.420,182.173 313.600,181.896 313.600 C 181.619 313.600,181.162 313.970,180.879 314.422 C 180.566 314.924,180.101 315.162,179.683 315.035 C 179.199 314.887,178.593 315.405,177.600 316.817 C 176.514 318.361,176.014 318.764,175.369 318.614 C 174.723 318.463,174.388 318.737,173.857 319.849 C 173.332 320.951,173.056 321.179,172.653 320.844 C 172.256 320.515,172.006 320.642,171.615 321.371 C 171.157 322.228,170.164 322.830,169.000 322.957 C 168.780 322.980,168.454 323.229,168.275 323.508 C 168.097 323.788,167.782 323.912,167.575 323.785 C 167.369 323.657,167.200 323.766,167.200 324.026 C 167.200 324.339,166.793 324.419,166.000 324.260 C 165.071 324.074,164.800 324.163,164.800 324.653 C 164.800 325.129,164.551 325.224,163.800 325.036 C 163.040 324.845,162.800 324.941,162.800 325.437 C 162.800 325.966,162.535 326.039,161.400 325.826 C 160.385 325.636,160.000 325.706,160.000 326.082 C 160.000 326.485,158.537 326.600,153.400 326.600 C 148.094 326.600,146.800 326.493,146.800 326.055 C 146.800 325.635,146.385 325.571,145.000 325.779 C 143.533 325.999,143.200 325.936,143.200 325.437 C 143.200 325.057,142.972 324.913,142.600 325.055 C 142.213 325.204,142.000 325.046,142.000 324.611 C 142.000 324.070,141.763 323.988,140.800 324.200 C 140.062 324.362,139.600 324.302,139.600 324.044 C 139.600 323.814,139.334 323.727,139.009 323.852 C 138.634 323.996,138.251 323.711,137.960 323.071 C 137.707 322.517,137.282 322.147,137.015 322.250 C 136.365 322.499,133.111 319.209,133.362 318.556 C 133.470 318.273,133.192 317.924,132.743 317.782 C 132.184 317.605,131.990 317.283,132.126 316.761 C 132.255 316.267,132.118 316.000,131.736 316.000 C 131.328 316.000,131.224 315.753,131.400 315.200 C 131.585 314.617,131.472 314.400,130.984 314.400 C 130.553 314.400,130.396 314.186,130.545 313.800 C 130.690 313.422,130.540 313.200,130.141 313.200 C 129.687 313.200,129.571 312.953,129.734 312.330 C 129.877 311.785,129.726 311.287,129.330 310.998 C 128.803 310.613,128.781 310.383,129.195 309.610 C 129.615 308.824,129.587 308.625,129.013 308.303 C 128.456 307.992,128.384 307.574,128.605 305.962 C 128.813 304.450,128.751 304.000,128.336 304.000 C 127.900 304.000,127.798 302.215,127.799 294.600 C 127.800 287.347,127.914 285.200,128.300 285.200 C 128.897 285.200,128.951 283.523,128.416 281.656 C 128.078 280.477,128.129 280.291,128.839 280.106 C 129.323 279.979,129.556 279.676,129.423 279.347 C 129.300 279.046,129.091 278.532,128.958 278.203 C 128.818 277.856,128.983 277.505,129.356 277.362 C 129.801 277.191,129.921 276.826,129.754 276.158 C 129.579 275.463,129.680 275.200,130.119 275.200 C 130.528 275.200,130.657 274.940,130.516 274.400 C 130.372 273.848,130.504 273.600,130.941 273.600 C 131.340 273.600,131.490 273.378,131.345 273.000 C 131.218 272.670,131.322 272.400,131.575 272.400 C 131.828 272.400,131.982 272.097,131.918 271.728 C 131.811 271.119,133.623 269.528,134.919 269.092 C 135.285 268.969,135.276 268.780,134.881 268.301 C 134.310 267.609,134.782 267.066,135.664 267.401 C 135.965 267.515,136.550 267.077,137.000 266.400 C 137.440 265.738,138.010 265.276,138.267 265.373 C 138.524 265.470,138.832 265.294,138.952 264.981 C 139.072 264.669,139.423 264.511,139.733 264.630 C 140.043 264.749,140.409 264.554,140.546 264.198 C 140.682 263.841,140.957 263.650,141.155 263.772 C 141.354 263.895,141.619 263.728,141.744 263.402 C 141.922 262.939,142.200 262.896,143.012 263.204 C 144.435 263.745,144.800 263.703,144.800 262.995 C 144.800 262.518,145.124 262.442,146.341 262.637 C 147.508 262.824,147.938 262.737,148.113 262.281 C 148.461 261.376,158.400 261.372,158.400 262.277 C 158.400 262.778,158.732 262.841,160.200 262.621 C 161.688 262.398,162.000 262.461,162.000 262.983 C 162.000 263.458,162.249 263.553,163.000 263.364 C 163.659 263.199,164.000 263.280,164.000 263.603 C 164.000 263.914,164.377 264.021,165.032 263.896 C 165.687 263.771,166.140 263.900,166.274 264.249 C 166.391 264.552,166.736 264.800,167.043 264.800 C 167.349 264.800,167.600 264.999,167.600 265.243 C 167.600 265.486,167.870 265.582,168.200 265.455 C 168.573 265.312,168.800 265.458,168.800 265.840 C 168.800 266.272,169.037 266.379,169.600 266.200 C 170.185 266.014,170.400 266.128,170.400 266.622 C 170.400 267.172,170.510 267.207,170.990 266.808 C 171.477 266.405,171.664 266.502,172.057 267.365 C 172.393 268.102,172.744 268.345,173.245 268.186 C 173.733 268.031,174.180 268.311,174.673 269.080 C 175.761 270.780,176.284 271.219,176.926 270.973 C 177.301 270.829,177.922 271.328,178.656 272.362 C 179.461 273.497,180.007 273.911,180.500 273.760 C 180.947 273.624,181.200 273.759,181.200 274.136 C 181.200 274.528,181.467 274.655,182.000 274.516 C 182.511 274.382,182.801 274.504,182.802 274.853 C 182.804 275.252,183.455 275.407,185.202 275.425 C 186.768 275.441,187.600 275.289,187.600 274.986 C 187.600 274.312,188.809 273.055,190.285 272.194 C 191.262 271.625,191.467 271.321,191.140 270.927 C 190.822 270.544,190.877 270.345,191.353 270.163 C 191.706 270.027,191.895 269.754,191.772 269.555 C 191.650 269.357,191.841 269.082,192.198 268.946 C 192.554 268.809,192.749 268.443,192.630 268.133 C 192.511 267.823,192.694 267.462,193.036 267.331 C 193.463 267.167,193.585 266.794,193.422 266.146 C 193.248 265.453,193.352 265.200,193.811 265.200 C 194.304 265.200,194.383 264.916,194.184 263.856 C 193.993 262.836,194.085 262.453,194.566 262.268 C 195.137 262.049,195.200 259.126,195.200 233.031 L 195.200 204.036 194.177 203.013 L 193.154 201.990 162.877 202.095 C 146.225 202.153,132.285 202.354,131.900 202.543 C 131.371 202.802,131.200 202.717,131.200 202.196 C 131.200 201.676,130.954 201.554,130.200 201.698 C 129.498 201.832,129.200 201.713,129.200 201.298 C 129.200 200.878,128.901 200.764,128.168 200.904 C 127.515 201.029,127.060 200.900,126.927 200.553 C 126.790 200.198,126.381 200.090,125.758 200.246 C 125.034 200.428,124.800 200.324,124.800 199.820 C 124.800 199.453,124.612 199.269,124.382 199.411 C 124.153 199.553,123.711 199.459,123.402 199.201 C 123.092 198.944,122.471 198.850,122.022 198.993 C 121.404 199.189,121.097 199.011,120.753 198.258 C 120.490 197.679,120.074 197.350,119.760 197.471 C 119.442 197.593,119.024 197.251,118.747 196.642 C 118.417 195.918,118.134 195.723,117.807 195.994 C 117.164 196.527,114.604 193.887,114.933 193.030 C 115.099 192.597,114.863 192.331,114.153 192.152 C 113.420 191.969,113.187 191.693,113.323 191.174 C 113.429 190.769,113.257 190.354,112.930 190.229 C 112.611 190.106,112.450 189.843,112.572 189.645 C 112.695 189.446,112.529 189.182,112.204 189.057 C 111.879 188.932,111.716 188.563,111.842 188.234 C 111.968 187.907,111.924 187.405,111.745 187.119 C 111.180 186.217,111.325 178.800,111.908 178.800 C 112.249 178.800,112.333 178.473,112.164 177.800 C 111.973 177.037,112.069 176.800,112.571 176.800 C 113.121 176.800,113.153 176.659,112.763 175.932 C 112.302 175.070,113.054 174.000,114.119 174.000 C 114.321 174.000,114.379 173.723,114.250 173.385 C 114.118 173.041,114.264 172.673,114.581 172.552 C 114.894 172.432,115.052 172.081,114.934 171.772 C 114.802 171.427,115.196 170.937,115.953 170.505 C 116.820 170.010,117.121 169.591,116.966 169.098 C 116.758 168.439,118.102 166.959,119.959 165.800 C 120.312 165.580,120.600 165.045,120.600 164.612 C 120.600 164.178,121.000 163.624,121.489 163.381 C 122.154 163.049,122.263 162.823,121.922 162.482 C 121.581 162.141,121.628 161.964,122.108 161.780 C 122.461 161.645,122.652 161.279,122.532 160.967 C 122.401 160.626,122.565 160.400,122.945 160.400 C 123.339 160.400,123.489 160.177,123.346 159.803 C 123.214 159.461,123.394 159.100,123.768 158.957 C 124.268 158.765,124.360 158.394,124.165 157.354 C 123.971 156.318,124.048 156.000,124.494 156.000 C 124.975 156.000,125.080 155.085,125.090 150.800 C 125.099 146.450,125.004 145.600,124.504 145.600 C 124.086 145.600,123.963 145.306,124.094 144.620 C 124.213 143.995,124.070 143.559,123.699 143.417 C 123.379 143.294,123.220 142.925,123.346 142.597 C 123.472 142.268,123.433 142.000,123.259 142.000 C 122.653 142.000,120.502 139.792,120.218 138.876 C 119.976 138.098,119.746 137.992,118.765 138.208 C 117.909 138.396,117.600 138.314,117.600 137.901 C 117.600 137.504,117.248 137.390,116.400 137.515 C 115.463 137.652,115.200 137.540,115.200 137.003 C 115.200 136.537,114.994 136.394,114.563 136.559 C 112.886 137.202,111.998 137.261,111.799 136.742 C 111.493 135.943,93.709 135.940,93.402 136.739 " stroke="none" fill="#86c2b8" fill-rule="evenodd"></path><path id="path9" d="M205.600 202.600 C 205.600 202.930,205.326 203.200,204.991 203.200 C 204.449 203.200,204.393 206.692,204.491 234.600 C 204.582 260.844,204.511 266.000,204.057 266.000 C 203.677 266.000,203.589 266.301,203.764 267.000 C 203.955 267.760,203.859 268.000,203.364 268.000 C 202.868 268.000,202.773 268.240,202.966 269.009 C 203.144 269.714,203.037 270.088,202.613 270.250 C 202.199 270.409,202.082 270.788,202.246 271.442 C 202.392 272.021,202.311 272.400,202.043 272.400 C 201.800 272.400,201.600 272.670,201.600 273.000 C 201.600 273.330,201.420 273.600,201.200 273.600 C 200.980 273.600,200.800 273.960,200.800 274.400 C 200.800 274.840,200.601 275.200,200.357 275.200 C 200.114 275.200,200.018 275.470,200.145 275.800 C 200.288 276.173,200.142 276.400,199.760 276.400 C 199.337 276.400,199.222 276.638,199.390 277.168 C 199.566 277.723,199.398 278.010,198.780 278.206 C 198.173 278.399,197.987 278.706,198.134 279.270 C 198.392 280.256,196.118 282.465,195.146 282.172 C 194.693 282.036,194.412 282.297,194.230 283.024 C 194.062 283.692,193.767 283.996,193.416 283.862 C 193.114 283.746,192.768 283.906,192.648 284.219 C 192.527 284.536,192.159 284.682,191.815 284.550 C 191.469 284.418,191.200 284.528,191.200 284.802 C 191.200 285.142,190.778 285.210,189.800 285.026 C 188.784 284.836,188.400 284.906,188.400 285.283 C 188.400 285.671,187.486 285.802,184.800 285.801 C 182.035 285.800,181.200 285.674,181.200 285.257 C 181.200 284.883,180.900 284.788,180.242 284.954 C 179.585 285.119,179.209 285.001,179.048 284.580 C 178.862 284.096,178.640 284.058,178.004 284.398 C 177.319 284.765,177.127 284.677,176.734 283.815 C 176.480 283.257,175.940 282.800,175.536 282.800 C 175.131 282.800,174.800 282.637,174.800 282.437 C 174.800 282.238,174.482 282.158,174.094 282.259 C 173.599 282.389,173.092 281.964,172.394 280.837 C 171.668 279.664,171.206 279.289,170.681 279.448 C 169.927 279.676,167.828 277.669,167.372 276.283 C 167.210 275.792,166.894 275.643,166.368 275.810 C 165.848 275.975,165.600 275.864,165.600 275.464 C 165.600 275.072,165.333 274.945,164.800 275.084 C 164.322 275.209,164.000 275.096,164.000 274.804 C 164.000 274.528,163.732 274.417,163.385 274.550 C 163.035 274.685,162.672 274.531,162.542 274.193 C 162.417 273.867,162.064 273.600,161.757 273.600 C 161.451 273.600,161.200 273.400,161.200 273.155 C 161.200 272.864,160.717 272.802,159.795 272.975 C 158.724 273.175,158.333 273.091,158.152 272.619 C 157.801 271.703,147.600 271.692,147.600 272.608 C 147.600 273.047,147.338 273.149,146.654 272.978 C 146.006 272.815,145.633 272.937,145.469 273.364 C 145.331 273.725,144.972 273.888,144.615 273.750 C 144.277 273.621,144.000 273.712,144.000 273.954 C 144.000 274.474,141.644 276.800,141.117 276.800 C 140.917 276.800,140.860 276.973,140.990 277.184 C 141.233 277.577,140.483 279.195,139.843 279.659 C 139.646 279.802,139.584 280.297,139.705 280.759 C 139.858 281.342,139.738 281.600,139.316 281.600 C 138.812 281.600,138.755 281.977,138.983 283.800 C 139.196 285.508,139.138 286.000,138.722 286.000 C 137.954 286.000,137.932 302.688,138.700 302.983 C 139.058 303.120,139.138 303.649,138.965 304.731 C 138.774 305.924,138.860 306.337,139.337 306.520 C 139.801 306.699,139.899 307.114,139.726 308.179 C 139.566 309.166,139.647 309.600,139.990 309.600 C 140.263 309.600,140.388 309.855,140.268 310.167 C 140.148 310.479,140.321 310.837,140.651 310.964 C 140.981 311.091,141.140 311.373,141.006 311.591 C 140.629 312.200,143.452 314.832,144.181 314.552 C 144.587 314.396,144.800 314.544,144.800 314.981 C 144.800 315.351,144.990 315.530,145.227 315.384 C 145.461 315.239,145.878 315.428,146.153 315.804 C 146.600 316.415,146.901 316.436,149.000 316.000 C 151.059 315.572,151.405 315.592,151.818 316.156 C 152.440 317.007,154.000 317.002,154.000 316.149 C 154.000 315.480,154.571 315.492,158.300 316.239 C 159.360 316.452,159.600 316.374,159.600 315.818 C 159.600 315.269,159.833 315.188,160.800 315.400 C 161.763 315.612,162.000 315.530,162.000 314.989 C 162.000 314.554,162.213 314.396,162.600 314.545 C 162.973 314.688,163.200 314.542,163.200 314.160 C 163.200 313.728,163.437 313.621,164.000 313.800 C 164.459 313.946,164.800 313.872,164.800 313.627 C 164.800 313.392,165.115 313.199,165.500 313.197 C 165.885 313.196,166.517 312.638,166.905 311.957 C 167.381 311.121,167.813 310.796,168.235 310.958 C 168.923 311.222,169.282 310.924,170.969 308.690 C 171.775 307.624,172.319 307.247,172.823 307.407 C 173.316 307.564,173.619 307.371,173.806 306.780 C 173.989 306.204,174.314 305.989,174.807 306.118 C 175.325 306.253,175.606 306.032,175.776 305.354 C 175.927 304.750,176.306 304.400,176.808 304.400 C 177.243 304.400,177.600 304.217,177.600 303.992 C 177.600 303.757,178.023 303.691,178.600 303.836 C 179.216 303.990,179.600 303.917,179.600 303.643 C 179.600 303.400,180.230 303.200,181.000 303.200 C 181.770 303.200,182.400 303.020,182.400 302.800 C 182.400 302.580,183.390 302.400,184.600 302.400 C 185.810 302.400,186.800 302.580,186.800 302.800 C 186.800 303.020,187.430 303.200,188.200 303.200 C 188.970 303.200,189.600 303.401,189.600 303.647 C 189.600 303.911,190.021 304.013,190.632 303.896 C 191.269 303.774,191.740 303.900,191.865 304.224 C 191.975 304.513,192.321 304.652,192.633 304.532 C 192.968 304.403,193.200 304.562,193.200 304.920 C 193.200 305.328,193.460 305.457,194.000 305.316 C 194.440 305.201,194.800 305.280,194.800 305.492 C 194.800 305.704,195.115 306.248,195.500 306.701 C 195.885 307.155,196.459 307.895,196.776 308.346 C 197.093 308.797,197.872 309.381,198.507 309.644 C 199.337 309.988,199.607 310.330,199.468 310.861 C 199.345 311.333,199.488 311.600,199.864 311.600 C 200.272 311.600,200.376 311.847,200.200 312.400 C 200.021 312.963,200.128 313.200,200.560 313.200 C 200.942 313.200,201.088 313.427,200.945 313.800 C 200.818 314.130,200.914 314.400,201.157 314.400 C 201.401 314.400,201.600 314.651,201.600 314.957 C 201.600 315.264,201.868 315.617,202.196 315.743 C 202.656 315.920,202.704 316.201,202.405 316.986 C 202.093 317.807,202.140 318.000,202.653 318.000 C 203.122 318.000,203.224 318.249,203.046 318.958 C 202.879 319.626,202.999 319.991,203.444 320.162 C 203.844 320.315,203.987 320.656,203.828 321.071 C 203.688 321.437,203.767 321.856,204.005 322.003 C 204.309 322.191,204.429 331.711,204.410 354.135 L 204.382 386.000 291.191 386.000 C 348.797 386.000,378.000 385.865,378.000 385.600 C 378.000 385.380,378.270 385.200,378.600 385.200 C 378.930 385.200,379.200 385.020,379.200 384.800 C 379.200 384.580,379.560 384.400,380.000 384.400 C 380.440 384.400,380.800 384.208,380.800 383.973 C 380.800 383.728,381.141 383.654,381.600 383.800 C 382.048 383.942,382.400 383.872,382.400 383.640 C 382.400 383.091,385.107 380.400,385.660 380.400 C 385.901 380.400,385.997 380.033,385.878 379.576 C 385.749 379.083,385.881 378.667,386.206 378.542 C 386.505 378.428,386.652 378.079,386.532 377.767 C 386.407 377.440,386.557 377.200,386.888 377.200 C 387.298 377.200,387.411 376.857,387.285 376.000 C 387.152 375.089,387.265 374.800,387.756 374.800 C 388.349 374.800,388.394 367.734,388.301 288.500 L 388.200 202.200 358.100 202.097 C 330.618 202.004,328.000 202.051,328.000 202.641 C 328.000 203.130,327.757 203.226,327.000 203.036 C 326.239 202.845,326.000 202.941,326.000 203.439 C 326.000 203.918,325.737 204.043,325.020 203.906 C 324.415 203.790,323.959 203.929,323.829 204.269 C 323.688 204.637,323.283 204.736,322.609 204.566 C 321.985 204.410,321.600 204.482,321.600 204.757 C 321.600 205.000,321.252 205.200,320.827 205.200 C 320.394 205.200,319.937 205.568,319.788 206.037 C 319.612 206.593,319.282 206.810,318.803 206.685 C 318.334 206.562,317.907 206.826,317.578 207.442 C 317.300 207.961,316.733 208.494,316.319 208.626 C 315.794 208.792,315.640 209.096,315.810 209.632 C 315.980 210.166,315.863 210.400,315.427 210.400 C 314.571 210.400,314.541 213.415,315.393 213.742 C 315.810 213.902,315.917 214.313,315.754 215.128 C 315.562 216.090,315.674 216.326,316.414 216.520 C 317.055 216.687,317.249 216.970,317.104 217.525 C 316.978 218.007,317.197 218.504,317.688 218.848 C 318.121 219.152,318.845 219.715,319.299 220.100 C 319.752 220.485,320.294 220.800,320.505 220.800 C 320.715 220.800,320.783 221.212,320.657 221.716 C 320.471 222.456,320.685 222.771,321.766 223.354 C 322.714 223.864,323.050 224.287,322.916 224.799 C 322.788 225.289,323.009 225.612,323.600 225.800 C 324.210 225.994,324.413 226.306,324.274 226.839 C 324.143 227.339,324.282 227.600,324.680 227.600 C 325.038 227.600,325.197 227.832,325.068 228.167 C 324.948 228.479,325.106 228.832,325.419 228.952 C 325.736 229.073,325.882 229.441,325.750 229.785 C 325.604 230.166,325.738 230.400,326.102 230.400 C 326.513 230.400,326.632 230.701,326.498 231.400 C 326.378 232.026,326.490 232.400,326.797 232.400 C 327.114 232.400,327.202 232.738,327.046 233.358 C 326.882 234.012,326.999 234.391,327.413 234.550 C 327.846 234.716,327.944 235.084,327.756 235.834 C 327.588 236.503,327.676 237.000,327.997 237.198 C 328.762 237.671,328.817 250.400,328.055 250.400 C 327.635 250.400,327.571 250.815,327.779 252.200 C 328.003 253.694,327.941 254.000,327.410 254.000 C 326.894 254.000,326.855 254.154,327.203 254.806 C 327.545 255.445,327.502 255.663,326.994 255.858 C 326.642 255.993,326.451 256.357,326.570 256.667 C 326.689 256.977,326.531 257.328,326.219 257.448 C 325.906 257.568,325.747 257.917,325.864 258.224 C 325.993 258.559,325.677 258.964,325.071 259.240 C 324.517 259.493,324.147 259.917,324.249 260.184 C 324.516 260.880,321.344 264.030,320.645 263.762 C 320.291 263.626,319.967 263.873,319.798 264.408 C 319.606 265.011,319.292 265.213,318.761 265.074 C 318.261 264.943,318.000 265.082,318.000 265.480 C 318.000 265.838,317.768 265.997,317.433 265.868 C 317.121 265.748,316.768 265.906,316.648 266.219 C 316.527 266.536,316.159 266.682,315.815 266.550 C 315.417 266.398,315.200 266.544,315.200 266.965 C 315.200 267.449,314.958 267.555,314.254 267.378 C 313.605 267.215,313.233 267.337,313.068 267.766 C 312.878 268.262,312.613 268.309,311.788 267.996 C 310.436 267.482,310.400 267.488,310.400 268.232 C 310.400 268.771,310.020 268.823,307.800 268.585 C 305.719 268.362,305.200 268.417,305.200 268.860 C 305.200 269.314,303.657 269.412,296.600 269.406 C 289.521 269.401,288.000 269.302,288.000 268.843 C 288.000 268.401,287.503 268.338,285.586 268.538 C 283.638 268.742,283.126 268.674,282.939 268.186 C 282.766 267.735,282.362 267.646,281.354 267.835 C 280.475 268.000,280.000 267.933,280.000 267.645 C 280.000 267.400,279.550 267.200,279.000 267.200 C 278.450 267.200,278.000 267.000,278.000 266.757 C 278.000 266.483,277.616 266.410,277.000 266.564 C 276.423 266.709,276.000 266.643,276.000 266.408 C 276.000 266.183,275.652 266.000,275.227 266.000 C 274.802 266.000,274.340 265.640,274.200 265.200 C 274.060 264.760,273.619 264.400,273.219 264.400 C 272.819 264.400,272.189 263.938,271.819 263.373 C 270.890 261.955,269.929 261.039,268.456 260.169 C 267.564 259.642,267.266 259.221,267.427 258.714 C 267.557 258.305,267.453 258.000,267.184 258.000 C 266.926 258.000,266.818 257.730,266.945 257.400 C 267.088 257.026,266.942 256.800,266.556 256.800 C 266.076 256.800,265.996 256.530,266.200 255.600 C 266.398 254.700,266.320 254.400,265.887 254.400 C 265.488 254.400,265.370 254.092,265.502 253.400 C 265.640 252.680,265.519 252.400,265.072 252.400 C 264.582 252.400,264.500 252.096,264.684 250.960 C 264.845 249.970,264.748 249.415,264.374 249.184 C 263.575 248.690,263.557 239.600,264.355 239.600 C 264.793 239.600,264.855 239.134,264.652 237.400 C 264.432 235.534,264.491 235.200,265.040 235.200 C 265.530 235.200,265.626 234.958,265.436 234.200 C 265.245 233.439,265.341 233.200,265.839 233.200 C 266.296 233.200,266.430 232.959,266.284 232.400 C 266.066 231.567,266.778 229.609,267.300 229.603 C 267.465 229.601,267.600 229.330,267.600 229.000 C 267.600 228.670,267.799 228.400,268.043 228.400 C 268.286 228.400,268.379 228.123,268.250 227.785 C 268.120 227.447,268.261 227.075,268.563 226.959 C 268.865 226.843,269.025 226.418,268.919 226.013 C 268.788 225.511,269.002 225.190,269.592 225.002 C 270.147 224.826,270.375 224.513,270.228 224.129 C 270.014 223.571,271.377 222.044,272.117 222.013 C 272.760 221.986,273.474 221.004,273.309 220.373 C 273.148 219.760,275.239 217.600,275.993 217.600 C 276.176 217.600,276.231 217.240,276.116 216.800 C 275.991 216.322,276.104 216.000,276.396 216.000 C 276.672 216.000,276.783 215.732,276.650 215.385 C 276.520 215.047,276.635 214.684,276.907 214.579 C 277.498 214.351,277.684 209.600,277.101 209.600 C 276.889 209.600,276.823 209.317,276.956 208.970 C 277.293 208.093,276.182 207.088,275.215 207.395 C 274.601 207.590,274.369 207.416,274.167 206.611 C 273.969 205.824,273.727 205.633,273.154 205.815 C 272.707 205.956,272.400 205.862,272.400 205.584 C 272.400 205.326,272.123 205.221,271.785 205.350 C 271.435 205.485,271.072 205.331,270.942 204.993 C 270.817 204.667,270.464 204.400,270.157 204.400 C 269.851 204.400,269.600 204.200,269.600 203.957 C 269.600 203.682,269.215 203.610,268.591 203.766 C 267.880 203.945,267.512 203.837,267.345 203.400 C 267.166 202.934,266.772 202.844,265.754 203.035 C 264.670 203.238,264.400 203.160,264.400 202.645 C 264.400 202.058,261.769 202.000,235.000 202.000 C 209.133 202.000,205.600 202.072,205.600 202.600 " stroke="none" fill="#e4c57c" fill-rule="evenodd"></path></g></svg>